<?xml version="1.0" standalone="no"?>
<!DOCTYPE svg PUBLIC "-//W3C//DTD SVG 20010904//EN"
 "http://www.w3.org/TR/2001/REC-SVG-20010904/DTD/svg10.dtd">
<svg version="1.0" xmlns="http://www.w3.org/2000/svg"
 width="512.000000pt" height="512.000000pt" viewBox="0 0 512.000000 512.000000"
 preserveAspectRatio="xMidYMid meet">
<metadata>
Created by potrace 1.11, written by Peter Selinger 2001-2013
</metadata>
<g transform="translate(0.000000,512.000000) scale(0.100000,-0.100000)"
fill="#000000" stroke="none">
<path d="M2445 4724 c-36 -8 -84 -10 -120 -7 -145 15 -284 4 -410 -32 -73 -21
-103 -25 -188 -22 -241 8 -460 -62 -644 -205 -56 -43 -68 -48 -113 -48 -111 0
-223 -73 -426 -275 -82 -82 -170 -166 -195 -185 -95 -75 -149 -142 -199 -245
-26 -55 -67 -140 -91 -190 -35 -74 -44 -103 -47 -163 -3 -56 0 -78 12 -98 16
-24 16 -29 -4 -87 -31 -89 -23 -163 29 -272 23 -46 47 -89 54 -97 41 -42 85
-112 91 -145 16 -98 118 -233 235 -310 83 -55 215 -109 344 -140 105 -25 115
-30 127 -56 7 -16 25 -44 40 -61 28 -32 46 -91 49 -160 4 -79 42 -120 246
-258 266 -181 373 -217 655 -222 152 -3 216 3 425 39 l40 7 34 -64 c48 -90 88
-139 202 -244 42 -39 188 -292 299 -517 90 -182 131 -235 208 -269 34 -16 57
-19 95 -15 104 13 109 51 37 264 -27 81 -45 149 -40 151 5 2 44 -4 87 -12 80
-16 274 -30 398 -28 69 1 91 5 255 43 219 52 399 183 447 325 9 27 27 63 39
79 26 35 44 103 38 143 -12 68 -14 66 51 69 285 13 467 154 555 430 50 156 60
241 55 488 -6 340 -51 552 -141 671 -13 17 -32 55 -43 85 -34 101 -117 238
-158 262 -44 26 -62 54 -67 104 -19 165 -121 316 -295 432 -36 24 -59 48 -70
73 -20 45 -145 202 -224 280 -109 109 -261 195 -447 254 -63 20 -177 56 -252
80 -165 54 -248 71 -359 73 -67 1 -99 8 -159 31 -41 16 -103 36 -138 44 -77
18 -236 18 -317 0z m343 -39 c39 -10 72 -23 72 -28 0 -6 -3 -8 -6 -4 -14 14
-108 -34 -160 -82 -31 -28 -62 -51 -69 -51 -7 0 -22 15 -33 33 -28 44 -69 81
-120 107 -24 13 -41 25 -38 27 3 3 29 9 58 13 77 12 212 5 296 -15z m-548 9
c0 -2 -18 -13 -40 -24 -21 -11 -56 -38 -76 -60 l-37 -40 -27 30 c-14 16 -44
37 -66 46 l-39 17 40 9 c22 5 81 13 130 17 113 8 115 8 115 5z m205 -62 c57
-29 107 -86 149 -168 20 -38 45 -80 57 -93 l21 -22 -34 -43 -33 -44 -11 27
c-12 28 -150 143 -209 175 -33 17 -65 16 -65 -2 0 -4 16 -16 36 -26 33 -15
104 -67 143 -104 8 -7 24 -20 37 -29 44 -28 31 -57 -74 -168 -78 -82 -99 -118
-127 -206 l-18 -56 -66 88 c-36 49 -71 91 -78 93 -29 12 -18 -15 36 -85 70
-91 80 -113 48 -104 -12 4 -46 21 -75 38 -29 18 -56 31 -60 30 -31 -8 21 -50
103 -84 55 -23 92 -78 100 -152 7 -69 -6 -69 -35 -1 -20 45 -40 58 -40 26 0
-21 63 -129 101 -175 20 -23 30 -29 39 -21 8 8 5 33 -11 95 -30 118 -30 234 2
325 19 54 37 83 87 136 58 61 87 82 222 156 25 13 73 40 107 59 48 27 70 33
92 28 23 -5 99 -52 150 -92 11 -9 -125 -210 -180 -266 -43 -42 -44 -42 -148
20 -50 30 -71 34 -71 14 0 -4 38 -29 84 -55 81 -45 84 -49 100 -99 9 -29 14
-61 12 -72 -2 -11 -9 -40 -15 -65 -17 -74 -19 -126 -5 -159 17 -40 39 -42 28
-3 -11 38 -7 107 11 177 15 61 14 82 -6 142 -10 33 -9 36 33 81 48 52 120 151
161 222 l26 46 113 23 c137 29 292 35 366 15 29 -7 105 -43 170 -78 64 -35
131 -67 147 -70 17 -3 46 -8 65 -11 53 -9 148 -54 215 -101 85 -60 142 -117
260 -259 28 -33 52 -62 56 -65 3 -3 31 -37 62 -77 67 -84 71 -87 87 -68 11 13
10 18 -3 28 -8 7 -51 57 -95 112 -183 231 -280 327 -399 396 -41 24 -53 36
-53 55 0 39 -27 94 -62 125 -55 48 -215 131 -318 164 -53 18 -149 53 -212 79
-132 54 -151 54 -243 -6 -44 -29 -53 -40 -72 -98 -12 -36 -25 -73 -28 -82 -10
-30 -73 -23 -125 13 -65 44 -84 50 -189 63 l-95 11 34 38 c36 42 86 70 139 81
69 13 111 27 106 36 -3 4 -33 2 -68 -7 -34 -8 -69 -16 -78 -18 -30 -6 -94 -52
-127 -90 -37 -42 -49 -39 -78 23 -16 35 -16 37 1 47 10 5 43 32 72 58 71 63
90 69 203 68 233 -3 321 -15 445 -61 33 -12 105 -35 160 -51 241 -68 392 -137
510 -233 67 -55 81 -69 150 -154 117 -144 126 -157 132 -185 4 -21 23 -39 72
-71 168 -109 269 -257 286 -421 5 -52 11 -64 38 -85 88 -70 168 -192 196 -297
6 -23 23 -55 36 -72 43 -51 95 -187 109 -286 19 -129 25 -197 25 -255 l0 -65
-33 65 c-29 59 -31 70 -24 120 11 77 7 197 -8 248 -8 29 -26 54 -51 75 -56 47
-77 71 -167 190 -44 60 -122 162 -172 228 -61 80 -100 142 -118 189 -77 195
-220 295 -423 295 l-91 0 -6 36 c-7 44 -84 122 -260 264 -82 66 -122 93 -129
86 -6 -6 -9 -12 -6 -14 3 -3 126 -103 198 -162 93 -76 161 -150 167 -180 6
-36 -17 -90 -61 -143 -16 -20 -22 -33 -15 -37 15 -9 47 21 77 72 23 39 28 42
81 49 120 15 258 -31 337 -112 85 -88 123 -186 179 -470 20 -98 45 -203 56
-233 48 -124 -16 -242 -197 -369 -90 -63 -93 -66 -208 -247 -44 -68 -159 -187
-255 -260 -36 -28 -66 -58 -68 -68 -5 -25 9 -21 48 16 19 18 49 41 65 51 84
54 207 193 284 321 52 87 66 104 115 138 l39 26 44 -67 c54 -84 94 -204 95
-292 2 -67 -10 -275 -18 -322 -3 -23 10 -47 21 -36 9 9 29 259 28 350 l-1 78
83 -2 c47 -1 82 -4 80 -7 -2 -4 5 -31 16 -61 70 -196 71 -301 4 -399 -33 -51
-35 -58 -35 -135 0 -44 -4 -101 -8 -126 -7 -42 -10 -45 -57 -63 -43 -16 -235
-37 -235 -26 0 2 4 19 10 38 13 47 -15 109 -66 146 -50 36 -194 185 -194 200
0 6 21 21 48 33 36 16 184 106 211 129 3 2 0 8 -5 13 -6 6 -36 -6 -84 -36
-146 -91 -232 -128 -350 -151 -58 -11 -203 -8 -255 5 -22 6 -67 13 -100 17
-33 3 -91 10 -130 15 -131 16 -220 24 -280 23 -33 -1 -118 -2 -190 -4 -116 -2
-135 1 -178 20 -59 28 -71 25 -179 -38 -47 -28 -102 -54 -124 -59 -52 -11
-139 -6 -247 14 -106 20 -136 16 -206 -28 -51 -31 -59 -33 -143 -32 -63 1 -88
-3 -88 -12 0 -14 52 -22 132 -19 47 1 69 9 118 39 68 42 88 45 184 22 73 -17
221 -23 271 -10 16 4 71 32 123 62 l93 54 62 -23 c55 -21 76 -23 182 -20 209
5 248 5 320 -3 39 -4 77 -9 85 -11 8 -2 47 -6 85 -10 179 -17 229 -27 266 -57
32 -26 51 -69 53 -115 2 -65 20 -61 24 6 3 43 -2 60 -21 90 l-25 37 57 -1 c69
-1 154 11 201 29 19 8 39 13 45 12 5 0 37 -32 70 -71 34 -38 88 -91 121 -118
67 -54 102 -114 84 -147 -6 -11 -21 -21 -33 -22 -96 -6 -109 -6 -307 16 -25 3
-83 8 -130 12 -47 3 -94 8 -105 11 -11 3 -92 7 -180 9 -147 3 -218 8 -270 19
-11 3 -31 7 -45 9 -14 3 -47 9 -75 15 -33 7 -185 10 -440 8 -372 -4 -393 -5
-459 -26 -79 -26 -78 -26 -206 -47 -98 -17 -358 -22 -447 -10 -132 19 -322 91
-383 145 -22 20 -23 21 -3 11 37 -17 124 -19 196 -3 67 15 69 15 145 -12 42
-15 94 -40 114 -56 37 -29 58 -36 58 -20 0 20 -78 72 -145 97 -38 15 -89 34
-113 43 -54 20 -108 64 -128 103 -31 61 -8 191 57 319 22 45 33 49 117 49 37
0 101 9 142 20 92 24 90 24 90 2 0 -10 16 -47 35 -84 21 -40 36 -81 37 -106 1
-23 4 -46 8 -53 12 -18 114 -48 122 -35 14 20 8 25 -39 39 -47 14 -48 15 -54
63 -3 27 -20 73 -37 104 -17 30 -32 62 -32 71 0 9 15 32 34 52 32 34 37 36 82
31 27 -3 58 -7 70 -9 11 -3 64 -8 116 -11 l95 -7 149 73 c152 74 194 86 229
67 12 -7 89 -11 194 -11 l173 -1 19 -51 c21 -56 51 -90 69 -79 8 5 6 14 -8 29
-10 11 -26 40 -35 64 l-17 42 31 0 c17 0 61 -16 98 -35 80 -42 132 -53 233
-47 l77 3 25 -40 c14 -22 26 -46 26 -52 0 -13 32 -8 37 6 2 6 -12 36 -31 67
l-33 56 66 69 c45 45 102 89 175 133 194 117 291 217 356 369 l43 100 66 -36
c36 -20 86 -51 110 -70 24 -18 48 -33 53 -33 35 0 -51 79 -133 120 -81 41 -83
47 -47 105 49 79 70 136 65 177 -5 38 -143 288 -159 288 -26 0 -13 -41 47
-142 91 -154 92 -161 18 -295 -32 -59 -69 -133 -82 -163 -56 -132 -65 -147
-150 -230 -60 -59 -121 -106 -201 -155 -79 -47 -143 -96 -203 -155 l-88 -85
-82 0 c-77 0 -88 3 -170 44 l-88 44 34 36 c38 40 70 95 60 105 -12 11 -22 6
-28 -14 -11 -35 -56 -80 -105 -105 -41 -21 -65 -24 -187 -29 -93 -3 -160 -1
-202 8 -34 7 -75 11 -91 9 -19 -2 -30 2 -30 10 0 21 48 103 126 218 41 60 74
114 74 119 0 33 -35 -6 -112 -123 -96 -147 -118 -187 -118 -215 0 -26 -7 -30
-137 -96 -128 -65 -158 -68 -338 -40 -59 9 -66 16 -105 100 -22 46 -44 84 -50
84 -17 0 -11 -25 20 -92 33 -68 37 -88 18 -88 -7 0 -26 -14 -43 -30 -25 -24
-53 -36 -136 -56 -206 -51 -339 -4 -409 147 -13 27 -29 49 -37 49 -17 0 -17 0
7 -54 10 -25 18 -46 16 -46 -2 0 -38 18 -81 41 -51 27 -80 38 -87 31 -10 -10
19 -29 167 -107 39 -20 77 -43 85 -50 8 -7 28 -19 44 -28 l30 -15 -32 -16
c-49 -26 -83 -66 -131 -157 -24 -46 -53 -92 -65 -101 -20 -16 -20 -17 -2 -24
24 -9 46 17 96 116 34 67 87 137 97 127 2 -3 -10 -40 -27 -83 -34 -85 -47
-170 -36 -229 5 -27 23 -53 62 -93 30 -30 53 -56 51 -59 -3 -2 -40 -5 -83 -5
-65 -1 -90 3 -144 26 -36 15 -70 28 -75 30 -29 5 -128 70 -169 110 -49 49 -52
56 -61 159 -6 57 -12 74 -41 110 -58 72 -59 77 -45 185 18 140 26 162 68 200
74 66 371 270 462 317 48 24 83 34 171 48 83 14 130 14 205 2 61 -10 108 -10
205 -2 89 7 126 22 199 76 29 23 60 41 70 42 9 0 26 2 39 5 34 6 26 -3 -20
-24 -24 -11 -75 -47 -114 -80 -52 -44 -75 -57 -83 -49 -22 22 -24 -5 -3 -51
25 -54 28 -75 18 -151 -11 -75 15 -64 31 14 9 47 9 66 -3 104 l-14 46 52 48
c96 87 182 124 323 142 74 9 101 14 198 36 240 53 338 45 486 -39 134 -77 128
-75 153 -58 13 8 31 29 41 45 24 40 4 51 -32 17 -15 -14 -32 -26 -38 -26 -13
0 -131 68 -138 79 -2 4 32 40 75 79 43 40 114 114 156 165 43 50 98 113 123
139 31 33 42 51 35 58 -11 11 -82 -59 -173 -171 -53 -65 -172 -184 -221 -221
-36 -27 -36 -27 -90 -13 -53 15 -182 20 -245 11 -16 -2 -74 -14 -129 -25 -54
-12 -102 -21 -107 -21 -6 0 7 15 28 32 86 74 126 142 136 233 3 28 8 57 12 66
9 24 -15 36 -30 16 -7 -9 -17 -49 -24 -88 -15 -91 -28 -115 -95 -176 -87 -80
-131 -97 -258 -99 l-106 -2 9 31 c18 62 11 102 -27 158 -20 30 -43 72 -50 94
-19 55 -36 85 -47 85 -5 0 -7 -6 -4 -12 3 -7 13 -31 22 -53 l17 -40 -25 24
c-14 12 -30 20 -36 16 -7 -4 14 -35 55 -80 77 -87 87 -117 65 -192 -13 -44
-25 -59 -68 -92 -83 -62 -201 -79 -379 -56 -83 11 -108 11 -192 0 -26 -3 -32
-1 -29 10 3 7 0 39 -8 72 -22 96 -44 242 -50 337 -8 122 -19 174 -55 259 -37
89 -59 122 -72 109 -6 -6 5 -43 30 -103 49 -115 52 -134 67 -334 3 -38 8 -81
10 -95 3 -14 8 -45 12 -70 3 -25 14 -76 24 -115 10 -38 15 -73 11 -76 -4 -3
-27 -11 -52 -18 -24 -7 -80 -33 -123 -58 -74 -42 -81 -44 -111 -32 -62 25
-110 62 -205 159 -64 65 -132 121 -204 169 -59 39 -122 84 -139 100 -31 29
-48 32 -48 7 0 -20 48 -59 165 -136 69 -46 140 -103 190 -154 92 -95 159 -150
198 -165 35 -14 34 -25 -6 -50 -19 -11 -87 -59 -152 -106 -110 -79 -121 -85
-154 -79 -43 8 -223 70 -266 91 -66 33 -120 107 -112 153 2 8 14 47 27 85 33
97 32 203 -4 304 -29 83 -41 102 -61 95 -10 -4 -7 -23 16 -85 44 -119 47 -196
15 -292 -34 -102 -36 -114 -20 -166 l13 -43 -47 7 c-61 9 -100 34 -162 103
-77 86 -102 145 -103 240 0 87 13 122 65 168 18 16 47 46 64 67 28 35 30 42
23 80 -4 23 -8 45 -9 50 0 10 -28 9 -34 -1 -3 -4 -1 -25 4 -46 7 -33 5 -41
-22 -71 l-30 -35 -36 19 c-124 63 -157 160 -96 281 52 106 103 167 159 194 51
25 181 53 192 43 8 -9 -15 -96 -38 -141 -13 -26 -17 -42 -10 -49 15 -15 47 45
77 143 29 94 77 196 124 265 42 61 155 171 208 202 57 34 141 39 201 12 58
-25 83 -24 110 5 31 33 17 56 -15 26 -25 -25 -74 -21 -74 4 0 27 107 112 172
137 60 23 73 24 243 21 440 -8 471 -11 524 -51 l23 -17 -63 -85 c-35 -46 -80
-99 -100 -117 l-37 -32 -58 31 c-114 62 -180 102 -246 150 -41 30 -70 44 -74
38 -7 -12 -8 -11 71 -71 56 -42 131 -88 216 -132 70 -37 72 -40 58 -83 -13
-41 -18 -92 -19 -216 l0 -78 -42 34 c-94 75 -149 96 -260 98 -54 2 -58 3 -71
33 -11 23 -13 59 -10 144 3 77 1 112 -7 112 -16 0 -19 -15 -23 -127 -3 -67 0
-111 9 -131 12 -29 11 -31 -19 -42 -89 -33 -132 -69 -184 -153 -36 -58 -52
-61 -53 -11 0 30 -50 102 -114 164 -59 57 -78 89 -90 152 -4 23 -12 35 -21 34
-25 -4 -27 -13 -11 -66 21 -69 44 -105 110 -167 30 -29 62 -66 71 -82 54 -105
6 -233 -98 -262 -23 -7 -96 -12 -161 -13 -80 -1 -121 -5 -123 -13 -7 -20 17
-26 106 -27 148 -3 252 26 298 84 7 8 42 64 79 123 78 128 115 166 181 190 46
17 144 23 210 13 62 -9 171 -82 212 -142 20 -29 21 -40 16 -130 -6 -83 -3
-108 13 -154 18 -52 18 -61 5 -125 -11 -54 -11 -70 -1 -76 6 -4 15 -6 19 -3 6
3 21 70 20 89 0 2 4 18 9 35 7 23 4 42 -11 77 -11 26 -20 65 -20 87 1 23 1
142 1 265 0 264 7 293 75 353 25 22 67 71 94 110 40 58 63 79 127 118 44 26
80 55 82 64 5 24 -23 20 -66 -9 -69 -47 -86 -30 -57 56 22 63 67 106 154 147
90 42 87 40 75 52 -12 12 -129 -38 -180 -76 l-38 -29 20 34 c23 40 71 81 116
98 47 18 155 10 203 -15z m-495 -9 c49 -3 70 -17 111 -74 l37 -50 -19 -39
c-11 -21 -19 -45 -19 -52 -1 -34 -15 -38 -69 -17 -46 17 -85 21 -275 25 -142
4 -223 9 -228 16 -6 11 -5 21 7 71 4 16 3 27 -3 27 -18 0 -34 -29 -35 -65 -1
-36 -5 -39 -58 -35 -38 2 -145 -28 -201 -56 -26 -13 -70 -47 -98 -75 -50 -50
-50 -50 -126 -55 -89 -5 -128 -24 -222 -110 -83 -75 -141 -152 -193 -256 l-42
-86 -71 -11 c-153 -25 -188 -46 -266 -162 -79 -115 -103 -205 -74 -275 12 -28
11 -32 -17 -58 -16 -16 -33 -25 -37 -21 -4 3 -7 39 -7 78 0 65 4 81 46 167 26
52 67 138 92 190 48 101 69 125 224 259 57 50 101 78 142 94 50 18 78 39 158
118 110 108 195 168 283 197 32 11 69 30 82 42 37 36 154 109 223 141 88 40
194 68 290 76 80 7 101 7 205 3 30 -1 66 2 80 8 18 7 28 7 35 -1 6 -7 26 -13
45 -14z m1486 -159 c49 -20 151 -58 226 -84 200 -69 348 -163 363 -231 4 -17
5 -33 2 -35 -4 -5 -51 5 -154 32 -28 8 -89 36 -135 62 -46 26 -96 53 -113 61
-83 36 -249 46 -381 22 -99 -19 -95 -21 -72 57 11 37 25 72 30 79 10 12 125
73 138 73 3 0 46 -16 96 -36z m-2536 -98 c0 -2 -29 -22 -64 -45 -35 -22 -106
-83 -157 -135 -52 -51 -105 -97 -119 -101 -23 -7 -21 -4 15 36 84 94 176 170
266 219 57 31 59 32 59 26z m1878 -25 c44 -1 35 -12 -46 -56 -37 -21 -87 -49
-112 -63 l-45 -27 58 72 c59 73 71 82 97 77 8 -1 30 -3 48 -3z m1897 -1146
c47 -60 91 -117 98 -125 7 -8 34 -45 60 -81 44 -62 47 -71 47 -127 0 -33 -9
-90 -21 -127 -22 -73 -30 -182 -14 -187 5 -2 13 24 17 57 4 32 15 84 24 115 9
30 19 80 21 110 3 30 7 57 9 59 8 9 63 -53 73 -82 7 -18 8 -76 5 -151 -11
-207 -10 -284 3 -297 20 -20 26 -4 15 46 -14 64 2 46 44 -50 32 -73 33 -81 29
-178 -4 -110 -33 -272 -63 -350 l-19 -49 -15 24 c-9 13 -30 37 -47 54 l-31 31
30 38 c34 43 120 189 120 205 0 33 -31 -4 -100 -120 -32 -54 -68 -100 -79
-100 -3 0 -7 22 -8 49 -3 87 -33 214 -67 279 -9 18 -14 33 -11 33 3 1 8 2 13
3 4 1 30 5 57 10 76 11 95 17 95 29 0 10 -102 4 -160 -9 -34 -7 -164 -7 -188
0 -12 4 -29 32 -46 75 -27 69 -69 143 -98 172 -15 15 -11 20 43 68 131 116
169 220 125 349 -21 60 -46 178 -71 327 -8 50 -7 49 110 -100z m-4483 48 c61
-40 68 -52 41 -74 -29 -25 -44 -79 -44 -161 0 -114 32 -180 139 -292 49 -51
100 -79 166 -92 l39 -7 -49 -26 c-39 -20 -64 -25 -121 -26 -48 0 -73 -4 -73
-11 0 -37 104 -31 211 12 l88 35 73 -35 c56 -27 82 -47 111 -86 34 -44 37 -53
25 -67 -16 -20 -76 -46 -88 -38 -15 9 -24 -17 -9 -26 21 -14 60 -1 102 33 35
28 41 29 69 17 l30 -12 -7 -76 c-4 -42 -8 -81 -8 -88 0 -13 -22 -11 -138 18
-209 51 -387 161 -468 287 -16 26 -40 81 -54 123 -17 53 -39 94 -71 133 -119
147 -151 288 -91 406 26 53 52 90 63 90 3 0 32 -17 64 -37z m678 -750 c53 -14
60 -19 54 -37 -10 -31 -12 -32 -49 -12 -33 18 -85 66 -72 66 4 0 34 -8 67 -17z
m4060 -660 c19 -21 36 -52 40 -74 6 -33 3 -45 -25 -86 -33 -49 -107 -122 -142
-141 -18 -10 -19 -7 -16 100 3 104 5 113 35 157 38 56 59 81 68 81 4 0 22 -16
40 -37z m-2239 -445 c50 -106 69 -159 73 -203 13 -123 70 -185 289 -313 53
-31 97 -63 97 -70 0 -7 23 -81 51 -164 29 -87 49 -163 47 -181 -3 -28 -7 -32
-47 -40 -57 -11 -114 10 -164 61 -23 23 -66 97 -112 190 -41 84 -121 232 -177
330 -91 159 -111 186 -193 267 -68 67 -101 109 -129 163 -27 53 -34 73 -24 77
33 12 98 22 158 24 l65 2 66 -143z m269 107 c113 -36 190 -52 272 -54 40 -1
85 -4 101 -5 15 -2 30 1 33 5 3 5 -31 9 -75 9 -44 0 -82 3 -85 8 -2 4 32 7 77
6 45 -1 123 -2 172 -3 50 -1 122 3 160 9 104 16 200 6 242 -26 29 -22 107 -69
179 -108 45 -24 94 -76 135 -143 48 -78 64 -97 53 -68 -13 35 -90 149 -120
177 -16 15 -69 50 -119 78 -49 29 -97 59 -105 67 -13 14 -12 15 15 8 74 -17
161 -69 223 -134 62 -65 120 -143 143 -194 7 -15 16 -27 21 -27 13 0 -29 74
-79 141 -61 81 -134 152 -187 180 -25 13 -46 27 -46 31 0 11 82 1 89 -10 3 -5
24 -19 46 -30 74 -39 138 -111 157 -175 13 -48 12 -42 22 -85 4 -18 10 -31 13
-29 2 3 -3 36 -12 74 -27 106 -61 153 -162 219 -29 19 -53 37 -53 39 0 2 19 2
43 -1 42 -6 97 -42 145 -94 33 -34 58 -93 72 -167 12 -59 11 -63 -14 -110 -15
-26 -35 -59 -45 -72 l-19 -25 -61 28 c-34 15 -78 29 -99 32 -29 4 -24 0 28
-19 36 -13 75 -29 88 -36 22 -12 23 -14 7 -31 -16 -18 -20 -18 -52 -5 -19 8
-53 30 -75 50 -23 19 -45 35 -50 35 -14 0 89 -88 111 -95 31 -10 26 -28 -6
-22 -16 3 -86 26 -158 51 -71 25 -141 45 -155 45 -24 -1 -23 -1 5 -10 17 -6
53 -16 80 -24 28 -7 88 -28 135 -46 l85 -33 -42 -18 c-41 -18 -43 -18 -95 2
-69 27 -182 85 -235 122 -24 16 -43 24 -43 19 0 -15 131 -90 228 -132 l85 -36
-49 -16 c-73 -23 -234 -41 -234 -26 0 5 13 9 28 9 31 0 126 29 119 37 -3 2
-30 -3 -60 -12 -102 -30 -279 -23 -447 17 -47 11 -93 21 -102 23 -30 6 -105
42 -112 54 -5 8 0 8 21 0 64 -25 238 -61 368 -76 135 -16 347 -1 323 23 -3 2
-18 0 -34 -7 -33 -12 -189 -15 -279 -5 -259 30 -411 78 -502 160 -13 10 -23
15 -23 10 0 -15 90 -98 136 -127 40 -24 143 -59 214 -73 19 -3 69 -12 110 -20
l75 -13 -75 4 c-174 10 -398 98 -508 198 -50 47 -68 78 -71 126 -2 46 -11 53
-11 10 l-1 -34 -20 35 c-23 40 -19 23 19 -75 18 -48 41 -84 72 -115 51 -51
180 -122 261 -144 30 -8 45 -15 34 -15 -75 -2 -330 135 -432 232 -38 35 -60
91 -45 110 7 8 7 25 2 47 l-9 35 3 -32 c1 -18 -1 -33 -4 -33 -8 0 -22 91 -16
98 3 2 18 -5 34 -17 41 -29 154 -53 229 -49 35 2 63 2 63 1 0 -2 -12 -8 -26
-14 -15 -5 -24 -12 -21 -15 2 -3 21 1 40 9 38 16 26 19 248 -62 105 -38 312
-71 464 -75 95 -2 250 15 264 29 3 4 -12 4 -34 0 -62 -11 -335 -15 -380 -6
-33 7 -24 9 53 10 50 0 92 4 92 9 0 4 -41 7 -90 6 -141 -1 -189 9 -306 65 -59
28 -109 49 -111 47 -2 -2 42 -27 99 -55 59 -29 93 -51 80 -51 -21 0 -163 46
-276 89 -49 18 -49 19 -20 25 49 11 69 14 125 21 30 4 56 7 59 8 14 2 118 -18
227 -44 116 -27 293 -46 293 -31 0 4 -33 8 -73 9 -39 1 -135 16 -212 33 -77
18 -148 34 -159 36 -37 7 -26 12 49 19 75 7 147 2 215 -15 36 -9 44 -11 145
-28 88 -16 231 -25 222 -16 -5 5 -12 9 -15 10 -4 0 -38 32 -77 70 -38 39 -91
83 -116 97 -46 27 -153 61 -227 73 -61 10 -33 -3 57 -25 123 -31 179 -60 259
-136 40 -37 72 -70 72 -74 0 -3 -21 -4 -47 -2 -40 3 -58 12 -105 51 -31 26
-77 57 -101 69 -49 24 -255 83 -270 78 -5 -1 8 -8 29 -15 22 -6 85 -25 141
-42 78 -24 117 -42 163 -76 33 -25 60 -49 60 -53 0 -4 -60 5 -132 20 -157 33
-254 33 -448 0 -69 -12 -145 -24 -170 -27 -190 -22 -315 5 -372 80 l-16 23 96
-19 c154 -30 335 -28 588 7 46 6 119 33 111 41 -3 3 -21 -2 -41 -10 -20 -8
-62 -18 -94 -21 -31 -4 -68 -9 -82 -12 -14 -3 -104 -7 -200 -9 -149 -2 -191 0
-285 19 -83 17 -111 26 -113 39 -4 19 5 19 173 -14 157 -31 321 -30 435 1 90
25 133 46 59 29 -24 -5 -55 -12 -69 -14 -14 -3 -49 -11 -79 -19 -51 -13 -186
-14 -250 -1 -57 12 -90 18 -190 35 -92 15 -105 20 -113 40 -7 21 -6 23 14 17
86 -25 211 -55 257 -61 30 -4 62 -8 73 -10 10 -2 18 0 18 6 0 5 -10 9 -22 10
-50 1 -118 12 -206 35 -110 29 -162 49 -162 63 0 14 13 13 70 0 25 -6 53 -12
63 -14 10 -2 26 -6 35 -9 9 -3 28 -7 42 -10 14 -3 57 -13 95 -21 87 -21 414
-36 432 -21 9 8 -34 11 -145 11 -173 1 -205 4 -337 36 -49 11 -99 23 -110 25
-93 17 -165 37 -165 46 0 19 217 -1 300 -27z m105 25 c0 -1 8 -3 18 -5 9 -2
15 1 12 6 -9 13 191 -4 205 -18 6 -6 -172 7 -182 14 -5 2 -8 -1 -8 -6 0 -6 18
-12 40 -12 22 -1 45 -3 50 -4 6 -1 27 -3 48 -4 28 -2 32 -4 17 -10 -10 -4 -34
-7 -51 -6 -23 2 -31 -1 -28 -10 7 -18 -134 8 -211 38 l-30 12 40 5 c35 5 80 5
80 0z m245 -40 c0 -5 -2 -10 -4 -10 -3 0 -8 5 -11 10 -3 6 -1 10 4 10 6 0 11
-4 11 -10z m982 -104 c51 -55 68 -95 68 -165 0 -57 -6 -50 -29 32 -19 70 -65
139 -116 176 l-30 22 30 -7 c18 -4 49 -27 77 -58z m38 22 c44 -48 84 -137 69
-154 -17 -21 -29 -17 -29 10 0 39 -18 75 -61 127 -30 36 -36 49 -24 49 9 0 29
-14 45 -32z m88 -21 c8 -27 11 -61 7 -75 l-7 -27 -18 37 c-9 20 -26 49 -37 65
-38 54 -38 55 3 51 37 -3 39 -5 52 -51z m-1269 -464 c154 -74 275 -103 446
-108 60 -2 126 -4 145 -5 l35 -2 -30 -9 c-25 -8 -278 -3 -368 6 -12 1 -32 3
-45 4 -13 0 -21 5 -17 11 3 5 -14 14 -37 21 -74 20 -223 95 -267 134 -23 21
-49 52 -58 69 -13 26 -8 23 43 -23 36 -32 96 -70 153 -98z"/>
<path d="M3348 4005 c-47 -50 -59 -85 -48 -143 11 -62 -16 -144 -84 -254 -6
-10 -39 -27 -73 -39 -45 -15 -60 -24 -56 -35 7 -19 18 -18 92 7 48 16 84 39
145 92 44 38 96 76 115 84 49 21 190 19 232 -3 106 -54 185 -210 205 -405 7
-74 24 -97 77 -106 33 -5 37 -3 37 16 0 14 -6 21 -19 21 -32 0 -51 11 -51 29
1 20 73 74 123 90 20 7 35 17 32 22 -12 18 -54 8 -104 -26 -56 -37 -56 -37
-66 30 -23 158 -118 315 -219 365 -37 18 -60 21 -137 19 -104 -2 -152 -17
-201 -63 -82 -75 -80 -75 -47 4 24 57 30 85 29 134 -3 94 -2 100 28 132 46 48
54 62 43 68 -6 4 -29 -14 -53 -39z"/>
<path d="M2094 2486 c-11 -29 44 -74 60 -48 3 5 -8 22 -24 37 -26 25 -30 26
-36 11z"/>
<path d="M2654 2255 c-3 -14 -4 -44 -1 -66 6 -45 52 -119 73 -119 20 0 18 9
-13 49 -23 29 -28 48 -30 96 -1 62 -18 85 -29 40z"/>
<path d="M1234 1851 c8 -13 172 -130 193 -138 36 -13 -8 26 -96 88 -79 55
-110 71 -97 50z"/>
<path d="M3260 1381 c-25 -3 -75 -6 -113 -6 -37 0 -67 -3 -67 -7 0 -12 135 -8
230 6 62 10 73 13 40 13 -25 0 -65 -3 -90 -6z"/>
<path d="M3420 1190 c31 -15 80 -35 110 -44 60 -17 240 -27 240 -14 0 4 -35 8
-77 9 -120 1 -168 11 -255 55 -26 13 -53 24 -60 24 -7 -1 12 -14 42 -30z"/>
<path d="M2845 1148 c8 -51 42 -113 81 -148 l28 -25 -27 35 c-42 54 -67 106
-69 145 -2 19 -7 35 -11 35 -4 0 -5 -19 -2 -42z"/>
<path d="M3907 1170 c4 -5 37 -4 73 0 l65 8 -73 -1 c-40 0 -70 -3 -65 -7z"/>
<path d="M2962 1163 c2 -7 19 -33 38 -57 25 -32 40 -43 53 -40 10 3 24 1 31
-5 17 -15 166 -66 263 -90 53 -14 114 -21 175 -21 51 0 125 -7 163 -16 85 -18
172 -29 163 -19 -3 3 -20 8 -37 11 -69 9 -88 13 -133 23 -26 6 -92 12 -145 13
-54 0 -125 8 -158 15 -33 8 -64 16 -70 17 -31 7 -205 68 -205 73 0 8 137 -6
305 -33 122 -19 285 -29 285 -17 0 5 -26 9 -57 9 -62 -1 -88 2 -313 33 -80 11
-178 22 -218 25 -65 3 -74 6 -95 32 -41 52 -48 59 -45 47z"/>
<path d="M2810 1144 c0 -7 7 -27 15 -45 10 -24 14 -28 14 -14 0 21 -28 78 -29
59z"/>
<path d="M3780 1128 c0 -4 44 -8 98 -9 116 -1 155 -5 217 -24 27 -7 44 -10 39
-5 -18 18 -99 37 -169 39 -153 7 -185 7 -185 -1z"/>
<path d="M3890 1102 c-30 -2 -59 -7 -63 -11 -7 -7 173 -3 181 4 6 6 -65 10
-118 7z"/>
</g>
</svg>
